# xmcd
#
# Track frame offsets: 
#        183
#        13318
#        27950
#        41320
#        55413
#        67915
#        91443
#        102965
#        117890
#        130685
#        143155
#        156313
#        168010
#        183575
#        194570
#        208298
#        223218
#        233483
#        247650
#        261273
#        274640
#        286988
#        301398
#        316148
#        329370
#
# Disc length: 4641 seconds
#
# Revision: 4
# Processed by: cddbd v1.5.2PL0 Copyright (c) Steve Scherf et al.
# Submitted via: ExactAudioCopyFreeDBPlugin 1.0
#
DISCID=69121f19
DTITLE=Muddy Waters - Muddy Waters Collection
DYEAR=1993
DGENRE=Blues
TTITLE0=Mannish Boy
TTITLE1=Baby Please Don`t Go
TTITLE2=Rollin' And Tumblin
TTITLE3=Rollin' Stone
TTITLE4=Mean Mistreader
TTITLE5=Long Distance Call
TTITLE6=Settin' Here Drinkin'
TTITLE7=Rock Me
TTITLE8=40 Days And 40 Nights
TTITLE9=All Aboard
TTITLE10=Close To You
TTITLE11=Goin' Home
TTITLE12=I Can't Be Satisfied
TTITLE13=I Feel So Good
TTITLE14=I'm Ready
TTITLE15=Iodine In My Coffee
TTITLE16=Mean Red Spider
TTITLE17=One More Mile
TTITLE18=Sad Letter
TTITLE19=She Moves Me
TTITLE20=So Glad I'm Living
TTITLE21=You Gonne Need My Help
TTITLE22=Walkin' Through The Park
TTITLE23=You Can't Lose What You Ain't Never Had
TTITLE24=I Got My Mojo Working
EXTD=YEAR: 1993
EXTT0=
EXTT1=
EXTT2=
EXTT3=
EXTT4=
EXTT5=
EXTT6=
EXTT7=
EXTT8=
EXTT9=
EXTT10=
EXTT11=
EXTT12=
EXTT13=
EXTT14=
EXTT15=
EXTT16=
EXTT17=
EXTT18=
EXTT19=
EXTT20=
EXTT21=
EXTT22=
EXTT23=
EXTT24=
PLAYORDER=
